<?xml version="1.0" encoding="utf-8"?>
<!-- Generator: Adobe Illustrator 26.0.3, SVG Export Plug-In . SVG Version: 6.00 Build 0)  -->
<svg version="1.0" id="Layer_1" xmlns="http://www.w3.org/2000/svg" xmlns:xlink="http://www.w3.org/1999/xlink" x="0px" y="0px"
	 viewBox="0 0 243.6 184.1" style="enable-background:new 0 0 243.6 184.1;" xml:space="preserve">
<style type="text/css">
	.st0{clip-path:url(#SVGID_00000124133354310667706800000014683710144658154430_);}
	.st1{fill:#0BBBEF;}
	.st2{fill:#FBBA00;}
	.st3{fill:#0070BA;}
</style>
<g>
	<defs>
		<rect id="SVGID_1_" x="22.6" y="58.1" width="198.4" height="67.9"/>
	</defs>
	<clipPath id="SVGID_00000040539477744141699800000013964483613323829658_">
		<use xlink:href="#SVGID_1_"  style="overflow:visible;"/>
	</clipPath>
	<g style="clip-path:url(#SVGID_00000040539477744141699800000013964483613323829658_);">
		<path class="st1" d="M92.6,93.7v11c0,1,0.5,1.4,1.5,1.4c1.8-0.2,3.6-0.7,5.2-1.6V93.7h1.6v13.6h-1.4l-0.1-1.2
			c-1.7,0.9-3.6,1.4-5.6,1.5c-2.1,0-2.9-1.2-2.9-3.1V93.7H92.6z"/>
		<path class="st1" d="M114.4,107.3v-11c0-1-0.5-1.4-1.5-1.4c-1.8,0.2-3.6,0.7-5.2,1.6v10.8H106V93.7h1.4l0.1,1.2
			c1.7-0.8,3.6-1.4,5.5-1.5c2.1,0,2.9,1.2,2.9,3.1v10.8H114.4z"/>
		<path class="st1" d="M120.2,93.7h1.6v3h-1.6V93.7z M120.2,98.3h1.6v9.1h-1.6V98.3z"/>
		<polygon class="st1" points="132.2,107.3 129.7,107.3 125.1,93.7 126.8,93.7 131,106.2 135.2,93.7 136.8,93.7 		"/>
		<path class="st1" d="M144.1,106.2c1.5,0,2.9-0.3,4.3-0.7l0.3,1.3c-1.5,0.5-3.1,0.7-4.7,0.8c-3.8,0-5-2-5-5v-4.3c0-2.8,1.2-5,5.1-5
			c3.8,0,5,2.2,5,5v2.7h-8.4v1.7c0,2.4,0.8,3.5,3.6,3.5 M140.7,99.6h6.8v-1.2c0-2.3-0.8-3.5-3.4-3.5c-2.5,0-3.5,1.2-3.5,3.5V99.6z"
			/>
		<path class="st1" d="M158.9,95.1c-1.5,0.7-2.9,1.6-4.3,2.5v9.8H153V93.7h1.5l0.1,2.1c1.3-0.9,2.7-1.7,4.2-2.3L158.9,95.1z"/>
		<path class="st1" d="M165.7,107.6c-1.4,0-2.7-0.2-4-0.7l0.3-1.3c1.2,0.3,2.4,0.5,3.6,0.6c2.5,0,3-0.5,3-2.2c0-2-0.1-2.2-3.2-2.9
			c-3.4-0.8-3.7-1.7-3.7-4.1c0-2.3,1.1-3.5,4.4-3.5c1.3,0,2.6,0.1,3.9,0.5l-0.2,1.4c-1.3-0.2-2.5-0.4-3.8-0.4
			c-2.4,0-2.7,0.6-2.7,2.1c0,1.9,0.1,2.1,2.6,2.7c4,1,4.2,1.7,4.2,4.2S169.3,107.6,165.7,107.6"/>
		<path class="st1" d="M174.1,93.7h1.6v3h-1.6V93.7z M174.1,98.3h1.6v9.1h-1.6V98.3z"/>
		<path class="st1" d="M187.5,107.2c-0.8,0.3-1.7,0.4-2.5,0.4c-2.1,0-3.1-0.8-3.1-2.9v-9.6h-2.6v-1.4h2.6V91l1.6-0.2v3h3.7l-0.2,1.4
			h-3.5v9.4c0,1.2,0.2,1.7,1.6,1.7c0.7,0,1.4-0.1,2.1-0.3L187.5,107.2z"/>
		<path class="st1" d="M194.9,106.2c1.5,0,2.9-0.2,4.3-0.7l0.3,1.3c-1.5,0.5-3.1,0.7-4.7,0.8c-3.8,0-5.1-2-5.1-5v-4.3
			c0-2.8,1.3-5,5.1-5s5,2.2,5,5v2.7h-8.4v1.7C191.4,105.2,192.3,106.2,194.9,106.2 M191.4,99.6h6.8v-1.2c0-2.3-0.8-3.5-3.4-3.5
			s-3.5,1.2-3.5,3.5V99.6z"/>
		<path class="st1" d="M193.1,91.2c1.2-0.4,2.7-0.9,4.1-1.4l0.5,1.4c-1.4,0.5-2.8,1-4.2,1.3L193.1,91.2z"/>
		<path d="M67.5,88.1h-2.9l-1.8-5.3h-9.4l-1.8,5.3h-2.9l7.5-22.1H60L67.5,88.1z M58.1,68.1l-4,12.3h7.9L58.1,68.1z"/>
		<path d="M70.4,65.4h2.8v4h-2.8V65.4z M70.4,72h2.8v16.2h-2.8V72z"/>
		<polygon points="75.8,88.1 81.1,80 75.9,72 78.8,72 82.6,77.9 86.5,72 89.4,72 84.1,80 89.5,88.1 86.6,88.1 82.6,82.1 78.8,88.1 
					"/>
		<polygon points="111.4,70.2 111,88.1 108.2,88.1 109,66 112.6,66 119,83.1 125.4,66 129,66 129.7,88.1 127,88.1 126.5,70.2 
			120.9,85.3 117.1,85.3 		"/>
		<path d="M144.6,88.1h-2.3l-0.2-1.2c-1.5,1-3.4,1.6-5.2,1.5c-3,0-4.3-1.8-4.3-4.6c0-3.3,1.7-4.5,4.9-4.5h4.3v-2.5
			c0-2-0.9-2.7-3.5-2.7c-1.5,0-2.9,0.1-4.3,0.4l-0.3-2.2c1.6-0.4,3.2-0.6,4.8-0.6c4.6,0,6.1,1.8,6.1,5.2L144.6,88.1z M141.8,81.6
			h-4.1c-1.7,0-2.4,0.5-2.4,2.2s0.3,2.3,2.3,2.3c1.5,0,2.9-0.5,4.2-1.3V81.6z"/>
		<path d="M156,74.2c-1.6,0.8-3.1,1.7-4.6,2.8v11.1h-2.8V72h2.4l0.2,2.3c1.4-1,2.9-1.9,4.4-2.6L156,74.2z"/>
		<path d="M163,88.5c-1.7,0-3.5-0.3-5.1-0.9l0.4-2.2c1.5,0.4,3.1,0.6,4.6,0.7c2.6,0,3-0.5,3-2.2s-0.1-1.9-3.4-2.7
			c-4-1-4.4-1.8-4.4-5.2c0-3,1.3-4.3,5.6-4.3c1.5,0,3.1,0.2,4.6,0.6l-0.2,2.3c-1.5-0.3-3-0.4-4.5-0.5c-2.4,0-2.7,0.6-2.7,2
			c0,1.8,0,2.1,2.8,2.8c4.6,1.2,5,1.7,5,4.9S167.6,88.4,163,88.5"/>
		<path d="M178.1,86.1c1.7,0,3.4-0.3,5.1-0.8l0.4,2.2c-1.8,0.6-3.8,0.9-5.7,0.9c-4.8,0-6.4-2.3-6.4-5.9v-4.8c0-3.3,1.5-6,6.3-6
			s6.1,2.8,6.1,6.1v3.4h-9.6v1.4C174.3,85.1,175,86.1,178.1,86.1 M174.3,78.8h6.9v-1.4c0-2.3-0.8-3.5-3.4-3.5s-3.6,1.3-3.6,3.5
			L174.3,78.8z"/>
		<path d="M187.2,65.4h2.8v4h-2.8V65.4z M187.2,72h2.8v16.2h-2.8V72z"/>
		<polygon points="195,88.1 195,65.4 197.8,65 197.8,88.1 		"/>
		<polygon points="202.8,88.1 202.8,65.4 205.6,65 205.6,88.1 		"/>
		<path d="M215.2,86.1c1.7,0,3.4-0.3,5.1-0.8l0.4,2.2c-1.8,0.6-3.8,0.9-5.7,0.9c-4.8,0-6.4-2.3-6.4-5.9v-4.8c0-3.3,1.5-6,6.3-6
			s6.1,2.8,6.1,6.1v3.4h-9.6v1.4C211.4,85.1,212.1,86.1,215.2,86.1 M211.4,78.8h6.9v-1.4c0-2.3-0.8-3.5-3.4-3.5s-3.5,1.3-3.5,3.5
			V78.8z"/>
		<path class="st2" d="M104.7,83.1l-4.4-2.5l-0.2-0.1l0.2-0.1l4.4-2.5c0.2-0.1,0.3-0.3,0.3-0.4c0-0.1,0-0.3,0-0.4c0-0.1,0-0.2,0-0.3
			v-0.1l-0.1-0.1c-0.3-0.2-0.6-0.4-0.9-0.4c-0.1,0-0.2,0-0.3,0.1l-4.4,2.5l-0.2,0.1v-9.4c0-0.3-0.2-0.5-0.5-0.7
			c-0.1-0.1-0.3-0.2-0.4-0.2h-0.1H98c-0.1,0.1-0.3,0.1-0.4,0.2c-0.3,0.1-0.4,0.4-0.5,0.7v9.4l-0.2-0.1L92.5,76
			c-0.1,0-0.2-0.1-0.3-0.1c-0.3,0-0.7,0.2-0.9,0.4l-0.1,0.1v0.1c0,0,0,0.1,0,0.3c0,0.1,0,0.3,0,0.4c0,0.2,0.1,0.3,0.3,0.4l4.4,2.5
			l0.2,0.1l-0.2,0.1l-4.3,2.5c-0.2,0.1-0.3,0.3-0.3,0.4c0,0.1,0,0.3,0,0.4c0,0.2,0,0.3,0,0.3v0.1l0.1,0.1c0.3,0.2,0.6,0.4,0.9,0.4
			l0,0c0.1,0,0.2,0,0.3-0.1l4.4-2.5l0,0l0.2-0.1v5.3c0,0.3,0.2,0.5,0.5,0.7c0.1,0.1,0.3,0.2,0.4,0.2h0.1h0.1
			c0.1-0.1,0.3-0.1,0.4-0.2c0.3-0.1,0.4-0.4,0.5-0.7v-5.3l0.2,0.1l4.4,2.5c0.1,0,0.2,0.1,0.3,0.1c0.3,0,0.7-0.2,0.9-0.4l0.1-0.1
			v-0.1c0-0.1,0-0.2,0-0.3c0-0.1,0-0.3,0-0.4C104.9,83.2,104.8,83.1,104.7,83.1"/>
		<path class="st3" d="M22.6,92.1c0-3.4,0.3-6.7,0.9-10c0.6-3.1,1.6-6.2,2.8-9.2c1.3-3.1,2.9-6.1,4.6-9c0.8-1.4,1.8-2.7,2.8-4
			c0.7-0.9,1.5-1.8,2.6-1.8c1.1,0,1.7,0.3,1.7,1c-0.4,1.3-1,2.6-1.6,3.8c-1.1,2.3-2.1,4.8-3,7.4c-1.1,3.1-2,6.3-2.7,9.6
			c-1.6,8-1.6,16.2,0,24.2c0.8,3.4,1.8,6.7,3,9.9c1,2.8,1.8,5.3,2.8,7.5c0.6,1.2,1,2.3,1.4,3.6c0,0.6-0.6,1-1.7,1
			c-1.2,0-1.8-1.1-2.5-2c-1-1.3-2-2.6-2.8-4c-1.7-2.9-3.3-5.9-4.6-9c-1.2-2.9-2.2-5.9-2.8-9C23,98.8,22.6,95.4,22.6,92.1"/>
		<path class="st3" d="M48.7,122.8l0.3-0.9c0.8,0.3,1.6,0.4,2.5,0.4c1.5,0,1.9-0.4,2.1-1.5c0.1-0.2,0.1-0.5,0.1-0.7
			c0-0.6-0.4-0.7-1.7-1.1c-1.6-0.4-2.1-0.9-2.1-1.9c0-0.3,0-0.6,0.1-0.9c0.3-1.9,1.1-2.3,3.3-2.3c0.8,0,1.6,0.1,2.4,0.3l-0.2,1
			c-0.7-0.2-1.5-0.3-2.3-0.3c-1.6,0-1.9,0.2-2.1,1.4c-0.1,0.3-0.1,0.5-0.1,0.8c0,0.6,0.3,0.8,1.6,1.1c1.7,0.5,2.2,0.9,2.2,1.8
			c0,0.3,0,0.6-0.1,0.9c-0.3,1.7-0.8,2.5-3.3,2.5C50.4,123.3,49.5,123.1,48.7,122.8"/>
		<path class="st3" d="M59.2,120.7l0.3-2c0.3-1.7,1.2-2.5,3.2-2.5c1.5,0,2.3,0.8,2.3,2c0,0.2,0,0.3,0,0.5l-0.4,2.1
			c-0.3,1.5-1.1,2.4-3.1,2.4C59.6,123.2,59,122.1,59.2,120.7 M63.9,118.7c0-0.1,0-0.3,0-0.4c0-0.7-0.4-1.1-1.4-1.1
			c-0.9-0.1-1.8,0.6-1.9,1.5c0,0,0,0.1,0,0.1l-0.3,2c-0.2,0.9,0.1,1.5,1.3,1.5c0.9,0.1,1.7-0.5,1.8-1.4c0,0,0-0.1,0-0.1L63.9,118.7z
			"/>
		<path class="st3" d="M73.7,117.5c-0.5-0.1-1-0.2-1.4-0.2c-1.1,0-1.5,0.4-1.7,1.6l-0.4,2.5c0,0.1,0,0.2,0,0.3
			c0,0.4,0.2,0.6,0.8,0.6c0.7,0,1.4-0.2,2.1-0.5l0.1,0.9c-0.7,0.3-1.5,0.5-2.4,0.5c-1.3,0-1.8-0.6-1.8-1.5c0-0.2,0-0.3,0-0.5
			l0.4-2.5c0.3-1.9,1.1-2.5,2.9-2.5c0.6,0,1.1,0.1,1.6,0.3L73.7,117.5z"/>
		<path class="st3" d="M78.6,116.5l1.2-0.2l-1.2,6.8h-1.1L78.6,116.5z M79.1,113.7l1.2-0.2l-0.3,1.7l-1.1,0.1L79.1,113.7z"/>
		<path class="st3" d="M88.5,123.1h-0.9v-0.8c-0.7,0.6-1.6,1-2.5,0.9c-0.7,0.1-1.3-0.3-1.4-1c0-0.1,0-0.2,0-0.3c0-0.2,0-0.4,0.1-0.5
			l0.5-2.7c0.3-1.6,0.9-2.5,3-2.5c0.8,0,1.6,0.2,2.4,0.5L88.5,123.1z M88.4,117.4c-0.4-0.1-0.9-0.2-1.3-0.2c-1,0-1.5,0.3-1.8,1.6
			l-0.5,2.4c0,0.2-0.1,0.3-0.1,0.5c0,0.3,0.1,0.5,0.6,0.5c0.9-0.1,1.8-0.5,2.4-1.2L88.4,117.4z"/>
		<polygon class="st3" points="95.2,113.7 96.4,113.5 94.7,123.1 93.5,123.1 		"/>
		<path class="st3" d="M101,121.3c0,0.1,0,0.2,0,0.3c0,0.4,0.2,0.7,0.9,0.7c0.9-0.1,1.7-0.3,2.5-0.7l0.2,0.9
			c-0.9,0.5-1.9,0.8-2.9,0.8c-1.3,0-1.9-0.6-1.9-1.6c0-0.2,0-0.4,0-0.6l0.4-2.3c0.3-1.7,1.1-2.6,3-2.6c1.1,0,1.9,0.5,1.9,1.5
			s-0.5,1.7-2.4,2.3c-0.8,0.3-1.1,0.3-1.7,0.5L101,121.3z M104.1,117.9c0-0.4-0.3-0.7-0.9-0.7c-0.8-0.1-1.6,0.4-1.7,1.3
			c0,0.1,0,0.2,0,0.2l-0.2,0.9l1.2-0.4C103.6,118.9,104.1,118.5,104.1,117.9"/>
		<path class="st3" d="M117.8,117.9c0-0.1,0-0.2,0-0.2c0-0.3-0.1-0.4-0.5-0.4c-0.9,0.1-1.8,0.5-2.5,1l-0.8,4.8h-1.1l0.9-5.2
			c0-0.1,0-0.2,0-0.2c0-0.3-0.1-0.4-0.5-0.4c-0.9,0.1-1.8,0.5-2.6,1l-0.8,4.8h-1.1l1.2-6.7l1-0.2l-0.1,0.9c0.9-0.6,1.8-0.9,2.8-1
			c0.5-0.1,1.1,0.2,1.2,0.8c0,0.1,0,0.1,0,0.2c0.9-0.6,1.8-0.9,2.8-1c0.6-0.1,1.1,0.3,1.2,0.9c0,0.1,0,0.2,0,0.3
			c0,0.2,0,0.4-0.1,0.6l-0.9,5.1h-1.1L117.8,117.9z"/>
		<path class="st3" d="M124.3,121.3c0,0.1,0,0.2,0,0.3c0,0.4,0.2,0.7,0.9,0.7c0.9-0.1,1.7-0.3,2.5-0.7l0.2,0.9
			c-0.9,0.5-1.9,0.8-2.9,0.8c-1.4,0-1.9-0.6-1.9-1.6c0-0.2,0-0.4,0.1-0.6l0.4-2.3c0.3-1.7,1.1-2.6,3-2.6c1.1,0,1.9,0.5,1.9,1.5
			s-0.5,1.7-2.4,2.3c-0.8,0.3-1.1,0.3-1.7,0.5L124.3,121.3z M127.4,117.9c0-0.4-0.3-0.7-0.9-0.7c-0.8-0.1-1.6,0.4-1.7,1.3
			c0,0.1,0,0.1,0,0.2l-0.2,0.9l1.2-0.4C126.9,118.9,127.4,118.5,127.4,117.9"/>
		<path class="st3" d="M138.3,117.4c0,0.2,0,0.4,0,0.6l-0.9,5.1h-1.1l0.9-5.2c0-0.1,0-0.2,0-0.2c0-0.3-0.1-0.4-0.5-0.4
			c-0.9,0.1-1.8,0.5-2.6,1l-0.8,4.8h-1.1l1.2-6.7l1-0.2l-0.1,0.9c0.9-0.6,1.8-0.9,2.8-1c0.6-0.1,1.1,0.3,1.2,0.9
			C138.3,117.3,138.3,117.4,138.3,117.4"/>
		<path class="st3" d="M142.9,122.2c0-0.1,0-0.2,0-0.3l0.8-4.6h-1.2l0.2-0.9h1.2l0.3-1.7l1.2-0.2l-0.3,1.8h1.8l-0.2,0.9h-1.8
			l-0.8,4.5c0,0.1,0,0.1,0,0.2c0,0.2,0.1,0.3,0.4,0.3c0.4,0,0.9-0.1,1.2-0.3l0.3,0.8c-0.6,0.3-1.2,0.5-1.8,0.5
			C143.3,123.3,142.9,122.8,142.9,122.2"/>
		<path class="st3" d="M158.5,121.3c0,0.1,0,0.2,0,0.3c0,0.4,0.2,0.7,0.9,0.7c0.9-0.1,1.7-0.3,2.5-0.7l0.2,0.9
			c-0.9,0.5-1.9,0.8-2.9,0.8c-1.4,0-1.9-0.6-1.9-1.6c0-0.2,0-0.4,0.1-0.6l0.4-2.3c0.3-1.7,1.1-2.6,3-2.6c1.1,0,1.9,0.5,1.9,1.5
			s-0.5,1.7-2.4,2.3c-0.8,0.3-1.1,0.3-1.7,0.5L158.5,121.3z M161.6,117.9c0-0.4-0.3-0.7-0.9-0.7c-0.8-0.1-1.6,0.4-1.7,1.3
			c0,0.1,0,0.1,0,0.2l-0.2,0.9l1.2-0.4C161.2,118.9,161.6,118.5,161.6,117.9"/>
		<path class="st3" d="M172.5,117.4c0,0.2,0,0.4-0.1,0.6l-0.9,5.1h-1.1l0.9-5.2c0-0.1,0-0.2,0-0.2c0-0.3-0.1-0.4-0.5-0.4
			c-0.9,0.1-1.8,0.5-2.5,1l-0.9,4.8h-1.1l1.2-6.7l1-0.2l-0.1,0.9c0.9-0.6,1.8-0.9,2.9-1c0.6-0.1,1.1,0.3,1.2,0.9
			C172.5,117.3,172.5,117.4,172.5,117.4"/>
		<path class="st3" d="M181.3,124.2c-0.2,1.4-0.8,1.8-2.4,1.8c-0.9,0-1.9-0.2-2.8-0.6l0.2-0.9c0.8,0.3,1.7,0.5,2.6,0.5
			c0.9,0,1.1-0.3,1.2-1l0.4-2c-0.7,0.6-1.6,0.9-2.5,0.9c-0.7,0.1-1.3-0.3-1.4-1c0-0.1,0-0.2,0-0.3c0-0.2,0-0.3,0-0.5l0.4-2.4
			c0.3-1.6,1-2.5,3.1-2.5c0.8,0,1.6,0.2,2.4,0.5L181.3,124.2z M181.3,117.4c-0.4-0.1-0.9-0.2-1.4-0.2c-1.1,0-1.6,0.3-1.8,1.7
			l-0.4,2.1c0,0.2-0.1,0.3-0.1,0.4c0,0.3,0.1,0.5,0.6,0.5c0.9-0.1,1.7-0.5,2.4-1.1L181.3,117.4z"/>
		<path class="st3" d="M191.4,123.1h-0.9v-0.8c-0.7,0.6-1.6,1-2.5,0.9c-0.7,0.1-1.3-0.3-1.4-1c0-0.1,0-0.2,0-0.3
			c0-0.2,0-0.4,0.1-0.5l0.5-2.7c0.3-1.6,0.9-2.5,3-2.5c0.8,0,1.6,0.2,2.4,0.5L191.4,123.1z M191.3,117.4c-0.4-0.1-0.9-0.2-1.3-0.2
			c-1,0-1.6,0.3-1.8,1.6l-0.4,2.4c0,0.2-0.1,0.3-0.1,0.5c0,0.3,0.1,0.5,0.6,0.5c0.9-0.1,1.8-0.5,2.4-1.2L191.3,117.4z"/>
		<path class="st3" d="M201.2,124.2c-0.2,1.4-0.8,1.8-2.4,1.8c-0.9,0-1.9-0.2-2.8-0.6l0.2-0.9c0.8,0.3,1.7,0.5,2.6,0.5
			c0.9,0,1.1-0.3,1.2-1l0.3-2c-0.7,0.6-1.6,0.9-2.5,0.9c-1,0-1.4-0.6-1.4-1.3c0-0.2,0-0.3,0.1-0.5l0.4-2.4c0.3-1.6,0.9-2.5,3.1-2.5
			c0.8,0,1.6,0.2,2.4,0.5L201.2,124.2z M201.2,117.4c-0.4-0.1-0.9-0.2-1.4-0.2c-1.1,0-1.6,0.3-1.8,1.7l-0.4,2.2
			c0,0.1-0.1,0.3-0.1,0.4c0,0.3,0.1,0.5,0.6,0.5c0.9-0.1,1.7-0.5,2.4-1.1L201.2,117.4z"/>
		<path class="st3" d="M207.7,121.3c0,0.1,0,0.2,0,0.3c0,0.4,0.2,0.7,0.9,0.7c0.9-0.1,1.7-0.3,2.5-0.7l0.2,0.8
			c-0.9,0.5-1.9,0.8-2.9,0.8c-1.4,0-1.9-0.6-1.9-1.6c0-0.2,0-0.4,0.1-0.6l0.4-2.3c0.3-1.7,1.1-2.6,3-2.6c1.1,0,1.9,0.5,1.9,1.5
			s-0.5,1.7-2.4,2.3c-0.8,0.3-1.1,0.3-1.7,0.5L207.7,121.3z M210.8,117.9c0-0.4-0.3-0.7-0.9-0.7c-0.8-0.1-1.6,0.4-1.7,1.3
			c0,0.1,0,0.1,0,0.2l-0.2,0.9l1.2-0.4C210.4,118.9,210.8,118.5,210.8,117.9 M209.2,114.8c0.7-0.4,1.4-0.8,2.1-1.2l0.4,0.8
			c-0.7,0.5-1.3,0.9-2.1,1.2L209.2,114.8z"/>
		<path class="st3" d="M216.8,121.3c0,0.1,0,0.2,0,0.3c0,0.4,0.2,0.7,0.9,0.7c0.9-0.1,1.7-0.3,2.5-0.7l0.2,0.9
			c-0.9,0.5-1.9,0.8-2.9,0.8c-1.4,0-1.9-0.6-1.9-1.6c0-0.2,0-0.4,0-0.6l0.4-2.3c0.3-1.7,1.1-2.6,3-2.6c1.1,0,1.9,0.5,1.9,1.5
			s-0.5,1.7-2.4,2.3c-0.8,0.3-1.1,0.3-1.7,0.5L216.8,121.3z M220,117.9c0-0.4-0.3-0.7-0.9-0.7c-0.8-0.1-1.6,0.4-1.7,1.3
			c0,0.1,0,0.2,0,0.2l-0.2,0.9l1.2-0.4C219.5,118.9,220,118.5,220,117.9"/>
	</g>
</g>
</svg>
